<mxfile host="app.diagrams.net" modified="2023-10-03T13:14:41.171Z" agent="Mozilla/5.0 (Windows NT 10.0; Win64; x64) AppleWebKit/537.36 (KHTML, like Gecko) Chrome/117.0.0.0 Safari/537.36" etag="A0NcjfG8tF2XdMUoTw0n" version="22.0.0" type="device">
  <diagram name="Page-1" id="WHiHsUpQVgr9ZM5Pt0Iq">
    <mxGraphModel dx="1816" dy="523" grid="1" gridSize="10" guides="1" tooltips="1" connect="1" arrows="1" fold="1" page="1" pageScale="1" pageWidth="827" pageHeight="1169" math="0" shadow="0">
      <root>
        <mxCell id="0" />
        <mxCell id="1" parent="0" />
        <mxCell id="tRyvcReRtocKopO3kf35-98" value="" style="edgeStyle=orthogonalEdgeStyle;rounded=0;orthogonalLoop=1;jettySize=auto;html=1;" edge="1" parent="1" target="tRyvcReRtocKopO3kf35-41">
          <mxGeometry relative="1" as="geometry">
            <mxPoint x="160" y="260" as="sourcePoint" />
          </mxGeometry>
        </mxCell>
        <mxCell id="tRyvcReRtocKopO3kf35-1" value="" style="rounded=0;whiteSpace=wrap;html=1;" vertex="1" parent="1">
          <mxGeometry x="100" y="60" width="120" height="190" as="geometry" />
        </mxCell>
        <mxCell id="tRyvcReRtocKopO3kf35-2" value="USER" style="text;html=1;strokeColor=none;fillColor=none;align=center;verticalAlign=middle;whiteSpace=wrap;rounded=0;fontSize=17;" vertex="1" parent="1">
          <mxGeometry x="100" y="60" width="120" height="30" as="geometry" />
        </mxCell>
        <mxCell id="tRyvcReRtocKopO3kf35-3" value="" style="endArrow=none;html=1;rounded=0;entryX=1;entryY=1;entryDx=0;entryDy=0;exitX=0;exitY=1;exitDx=0;exitDy=0;" edge="1" parent="1" source="tRyvcReRtocKopO3kf35-2" target="tRyvcReRtocKopO3kf35-2">
          <mxGeometry width="50" height="50" relative="1" as="geometry">
            <mxPoint x="390" y="420" as="sourcePoint" />
            <mxPoint x="440" y="370" as="targetPoint" />
          </mxGeometry>
        </mxCell>
        <mxCell id="tRyvcReRtocKopO3kf35-7" value="id_user" style="text;html=1;strokeColor=none;fillColor=none;align=left;verticalAlign=middle;whiteSpace=wrap;rounded=0;fontSize=14;" vertex="1" parent="1">
          <mxGeometry x="100" y="90" width="120" height="20" as="geometry" />
        </mxCell>
        <mxCell id="tRyvcReRtocKopO3kf35-8" value="pseudo" style="text;html=1;strokeColor=none;fillColor=none;align=left;verticalAlign=middle;whiteSpace=wrap;rounded=0;fontSize=14;" vertex="1" parent="1">
          <mxGeometry x="100" y="150" width="120" height="20" as="geometry" />
        </mxCell>
        <mxCell id="tRyvcReRtocKopO3kf35-9" value="email&lt;span style=&quot;white-space: pre;&quot;&gt;&#x9;&lt;/span&gt;" style="text;html=1;strokeColor=none;fillColor=none;align=left;verticalAlign=middle;whiteSpace=wrap;rounded=0;fontSize=14;" vertex="1" parent="1">
          <mxGeometry x="100" y="170" width="120" height="20" as="geometry" />
        </mxCell>
        <mxCell id="tRyvcReRtocKopO3kf35-10" value="password" style="text;html=1;strokeColor=none;fillColor=none;align=left;verticalAlign=middle;whiteSpace=wrap;rounded=0;fontSize=14;" vertex="1" parent="1">
          <mxGeometry x="100" y="190" width="120" height="20" as="geometry" />
        </mxCell>
        <mxCell id="tRyvcReRtocKopO3kf35-11" value="role" style="text;html=1;strokeColor=none;fillColor=none;align=left;verticalAlign=middle;whiteSpace=wrap;rounded=0;fontSize=14;" vertex="1" parent="1">
          <mxGeometry x="100" y="210" width="120" height="20" as="geometry" />
        </mxCell>
        <mxCell id="tRyvcReRtocKopO3kf35-12" value="" style="rounded=0;whiteSpace=wrap;html=1;" vertex="1" parent="1">
          <mxGeometry x="-120" y="285.5" width="120" height="165.5" as="geometry" />
        </mxCell>
        <mxCell id="tRyvcReRtocKopO3kf35-13" value="machine" style="text;html=1;strokeColor=none;fillColor=none;align=center;verticalAlign=middle;whiteSpace=wrap;rounded=0;fontSize=17;" vertex="1" parent="1">
          <mxGeometry x="-120" y="285.5" width="120" height="30" as="geometry" />
        </mxCell>
        <mxCell id="tRyvcReRtocKopO3kf35-14" value="" style="endArrow=none;html=1;rounded=0;entryX=1;entryY=1;entryDx=0;entryDy=0;exitX=0;exitY=1;exitDx=0;exitDy=0;" edge="1" parent="1" source="tRyvcReRtocKopO3kf35-13" target="tRyvcReRtocKopO3kf35-13">
          <mxGeometry width="50" height="50" relative="1" as="geometry">
            <mxPoint x="170" y="645.5" as="sourcePoint" />
            <mxPoint x="220" y="595.5" as="targetPoint" />
          </mxGeometry>
        </mxCell>
        <mxCell id="tRyvcReRtocKopO3kf35-15" value="id_machine" style="text;html=1;strokeColor=none;fillColor=none;align=left;verticalAlign=middle;whiteSpace=wrap;rounded=0;fontSize=14;" vertex="1" parent="1">
          <mxGeometry x="-120" y="315.5" width="120" height="20" as="geometry" />
        </mxCell>
        <mxCell id="tRyvcReRtocKopO3kf35-16" value="name" style="text;html=1;strokeColor=none;fillColor=none;align=left;verticalAlign=middle;whiteSpace=wrap;rounded=0;fontSize=14;" vertex="1" parent="1">
          <mxGeometry x="-120" y="335.5" width="120" height="20" as="geometry" />
        </mxCell>
        <mxCell id="tRyvcReRtocKopO3kf35-17" value="description" style="text;html=1;strokeColor=none;fillColor=none;align=left;verticalAlign=middle;whiteSpace=wrap;rounded=0;fontSize=14;" vertex="1" parent="1">
          <mxGeometry x="-120" y="355.5" width="120" height="20" as="geometry" />
        </mxCell>
        <mxCell id="tRyvcReRtocKopO3kf35-18" value="tarife" style="text;html=1;strokeColor=none;fillColor=none;align=left;verticalAlign=middle;whiteSpace=wrap;rounded=0;fontSize=14;" vertex="1" parent="1">
          <mxGeometry x="-120" y="375.5" width="120" height="20" as="geometry" />
        </mxCell>
        <mxCell id="tRyvcReRtocKopO3kf35-19" value="sold win" style="text;html=1;strokeColor=none;fillColor=none;align=left;verticalAlign=middle;whiteSpace=wrap;rounded=0;fontSize=14;" vertex="1" parent="1">
          <mxGeometry x="-120" y="395.5" width="120" height="20" as="geometry" />
        </mxCell>
        <mxCell id="tRyvcReRtocKopO3kf35-20" value="" style="endArrow=none;html=1;rounded=0;exitX=1;exitY=0.5;exitDx=0;exitDy=0;entryX=0;entryY=0.5;entryDx=0;entryDy=0;" edge="1" parent="1" target="tRyvcReRtocKopO3kf35-77">
          <mxGeometry width="50" height="50" relative="1" as="geometry">
            <mxPoint x="220" y="100" as="sourcePoint" />
            <mxPoint x="280" y="100" as="targetPoint" />
          </mxGeometry>
        </mxCell>
        <mxCell id="tRyvcReRtocKopO3kf35-29" value="1,1" style="text;html=1;strokeColor=none;fillColor=none;align=center;verticalAlign=middle;whiteSpace=wrap;rounded=0;" vertex="1" parent="1">
          <mxGeometry x="241" y="83" width="16" height="14" as="geometry" />
        </mxCell>
        <mxCell id="tRyvcReRtocKopO3kf35-32" value="sold loos" style="text;html=1;strokeColor=none;fillColor=none;align=left;verticalAlign=middle;whiteSpace=wrap;rounded=0;fontSize=14;" vertex="1" parent="1">
          <mxGeometry x="-120" y="415.5" width="120" height="20" as="geometry" />
        </mxCell>
        <mxCell id="tRyvcReRtocKopO3kf35-33" value="nbtour" style="text;html=1;strokeColor=none;fillColor=none;align=left;verticalAlign=middle;whiteSpace=wrap;rounded=0;fontSize=14;" vertex="1" parent="1">
          <mxGeometry x="-120" y="432.5" width="120" height="20" as="geometry" />
        </mxCell>
        <mxCell id="tRyvcReRtocKopO3kf35-34" value="" style="rounded=1;whiteSpace=wrap;html=1;arcSize=50;" vertex="1" parent="1">
          <mxGeometry x="51" y="290" width="230" height="150" as="geometry" />
        </mxCell>
        <mxCell id="tRyvcReRtocKopO3kf35-35" value="machin_log" style="text;html=1;strokeColor=none;fillColor=none;align=center;verticalAlign=middle;whiteSpace=wrap;rounded=0;fontSize=21;" vertex="1" parent="1">
          <mxGeometry x="111" y="292" width="110" height="30" as="geometry" />
        </mxCell>
        <mxCell id="tRyvcReRtocKopO3kf35-36" value="" style="endArrow=none;html=1;rounded=0;exitX=0.055;exitY=0.241;exitDx=0;exitDy=0;exitPerimeter=0;entryX=0.942;entryY=0.226;entryDx=0;entryDy=0;entryPerimeter=0;" edge="1" parent="1" source="tRyvcReRtocKopO3kf35-34" target="tRyvcReRtocKopO3kf35-34">
          <mxGeometry width="50" height="50" relative="1" as="geometry">
            <mxPoint x="126" y="350" as="sourcePoint" />
            <mxPoint x="241" y="319" as="targetPoint" />
          </mxGeometry>
        </mxCell>
        <mxCell id="tRyvcReRtocKopO3kf35-37" value="id_machin_log" style="text;html=1;strokeColor=none;fillColor=none;align=left;verticalAlign=middle;whiteSpace=wrap;rounded=0;fontSize=14;" vertex="1" parent="1">
          <mxGeometry x="101" y="325" width="120" height="20" as="geometry" />
        </mxCell>
        <mxCell id="tRyvcReRtocKopO3kf35-38" value="user_id" style="text;html=1;strokeColor=none;fillColor=none;align=left;verticalAlign=middle;whiteSpace=wrap;rounded=0;fontSize=14;" vertex="1" parent="1">
          <mxGeometry x="101" y="340" width="120" height="20" as="geometry" />
        </mxCell>
        <mxCell id="tRyvcReRtocKopO3kf35-39" value="machine_id" style="text;html=1;strokeColor=none;fillColor=none;align=left;verticalAlign=middle;whiteSpace=wrap;rounded=0;fontSize=14;" vertex="1" parent="1">
          <mxGeometry x="101" y="355" width="120" height="20" as="geometry" />
        </mxCell>
        <mxCell id="tRyvcReRtocKopO3kf35-40" value="sold" style="text;html=1;strokeColor=none;fillColor=none;align=left;verticalAlign=middle;whiteSpace=wrap;rounded=0;fontSize=14;" vertex="1" parent="1">
          <mxGeometry x="100" y="230" width="120" height="20" as="geometry" />
        </mxCell>
        <mxCell id="tRyvcReRtocKopO3kf35-41" value="trensaction" style="text;html=1;strokeColor=none;fillColor=none;align=left;verticalAlign=middle;whiteSpace=wrap;rounded=0;fontSize=14;" vertex="1" parent="1">
          <mxGeometry x="101" y="375" width="70" height="17" as="geometry" />
        </mxCell>
        <mxCell id="tRyvcReRtocKopO3kf35-42" value="new_sold_user" style="text;html=1;strokeColor=none;fillColor=none;align=left;verticalAlign=middle;whiteSpace=wrap;rounded=0;fontSize=14;" vertex="1" parent="1">
          <mxGeometry x="101" y="392" width="70" height="17" as="geometry" />
        </mxCell>
        <mxCell id="tRyvcReRtocKopO3kf35-43" value="created_at" style="text;html=1;strokeColor=none;fillColor=none;align=left;verticalAlign=middle;whiteSpace=wrap;rounded=0;fontSize=14;" vertex="1" parent="1">
          <mxGeometry x="101" y="409" width="80" height="17" as="geometry" />
        </mxCell>
        <mxCell id="tRyvcReRtocKopO3kf35-44" value="" style="endArrow=none;html=1;rounded=0;entryX=0.475;entryY=0.001;entryDx=0;entryDy=0;entryPerimeter=0;exitX=0.5;exitY=1;exitDx=0;exitDy=0;" edge="1" parent="1" source="tRyvcReRtocKopO3kf35-1" target="tRyvcReRtocKopO3kf35-34">
          <mxGeometry width="50" height="50" relative="1" as="geometry">
            <mxPoint x="160" y="260" as="sourcePoint" />
            <mxPoint x="290" y="140" as="targetPoint" />
          </mxGeometry>
        </mxCell>
        <mxCell id="tRyvcReRtocKopO3kf35-45" value="" style="endArrow=none;html=1;rounded=0;entryX=0;entryY=0.5;entryDx=0;entryDy=0;exitX=1;exitY=0.5;exitDx=0;exitDy=0;" edge="1" parent="1" source="tRyvcReRtocKopO3kf35-17" target="tRyvcReRtocKopO3kf35-34">
          <mxGeometry width="50" height="50" relative="1" as="geometry">
            <mxPoint x="30" y="280" as="sourcePoint" />
            <mxPoint x="20" y="300" as="targetPoint" />
          </mxGeometry>
        </mxCell>
        <mxCell id="tRyvcReRtocKopO3kf35-49" value="1,n" style="text;html=1;strokeColor=none;fillColor=none;align=center;verticalAlign=middle;whiteSpace=wrap;rounded=0;" vertex="1" parent="1">
          <mxGeometry x="162" y="266" width="16" height="14" as="geometry" />
        </mxCell>
        <mxCell id="tRyvcReRtocKopO3kf35-50" value="1,n" style="text;html=1;strokeColor=none;fillColor=none;align=center;verticalAlign=middle;whiteSpace=wrap;rounded=0;" vertex="1" parent="1">
          <mxGeometry x="14" y="345" width="16" height="14" as="geometry" />
        </mxCell>
        <mxCell id="tRyvcReRtocKopO3kf35-66" value="1,n" style="text;html=1;strokeColor=none;fillColor=none;align=center;verticalAlign=middle;whiteSpace=wrap;rounded=0;" vertex="1" parent="1">
          <mxGeometry x="-56" y="226" width="16" height="14" as="geometry" />
        </mxCell>
        <mxCell id="tRyvcReRtocKopO3kf35-67" value="" style="rounded=0;whiteSpace=wrap;html=1;" vertex="1" parent="1">
          <mxGeometry x="360" y="40" width="120" height="160" as="geometry" />
        </mxCell>
        <mxCell id="tRyvcReRtocKopO3kf35-68" value="sold log" style="text;html=1;strokeColor=none;fillColor=none;align=center;verticalAlign=middle;whiteSpace=wrap;rounded=0;fontSize=17;" vertex="1" parent="1">
          <mxGeometry x="360" y="40" width="120" height="30" as="geometry" />
        </mxCell>
        <mxCell id="tRyvcReRtocKopO3kf35-69" value="" style="endArrow=none;html=1;rounded=0;entryX=1;entryY=1;entryDx=0;entryDy=0;exitX=0;exitY=1;exitDx=0;exitDy=0;" edge="1" parent="1" source="tRyvcReRtocKopO3kf35-68" target="tRyvcReRtocKopO3kf35-68">
          <mxGeometry width="50" height="50" relative="1" as="geometry">
            <mxPoint x="650" y="400" as="sourcePoint" />
            <mxPoint x="700" y="350" as="targetPoint" />
          </mxGeometry>
        </mxCell>
        <mxCell id="tRyvcReRtocKopO3kf35-70" value="id_log" style="text;html=1;strokeColor=none;fillColor=none;align=left;verticalAlign=middle;whiteSpace=wrap;rounded=0;fontSize=14;" vertex="1" parent="1">
          <mxGeometry x="360" y="70" width="120" height="20" as="geometry" />
        </mxCell>
        <mxCell id="tRyvcReRtocKopO3kf35-71" value="user_id" style="text;html=1;strokeColor=none;fillColor=none;align=left;verticalAlign=middle;whiteSpace=wrap;rounded=0;fontSize=14;" vertex="1" parent="1">
          <mxGeometry x="360" y="90" width="120" height="20" as="geometry" />
        </mxCell>
        <mxCell id="tRyvcReRtocKopO3kf35-72" value="data" style="text;html=1;strokeColor=none;fillColor=none;align=left;verticalAlign=middle;whiteSpace=wrap;rounded=0;fontSize=14;" vertex="1" parent="1">
          <mxGeometry x="360" y="110" width="120" height="20" as="geometry" />
        </mxCell>
        <mxCell id="tRyvcReRtocKopO3kf35-73" value="last_sold" style="text;html=1;strokeColor=none;fillColor=none;align=left;verticalAlign=middle;whiteSpace=wrap;rounded=0;fontSize=14;" vertex="1" parent="1">
          <mxGeometry x="360" y="130" width="120" height="20" as="geometry" />
        </mxCell>
        <mxCell id="tRyvcReRtocKopO3kf35-74" value="new_sold" style="text;html=1;strokeColor=none;fillColor=none;align=left;verticalAlign=middle;whiteSpace=wrap;rounded=0;fontSize=14;" vertex="1" parent="1">
          <mxGeometry x="360" y="150" width="120" height="20" as="geometry" />
        </mxCell>
        <mxCell id="tRyvcReRtocKopO3kf35-76" value="machine_id" style="text;html=1;strokeColor=none;fillColor=none;align=left;verticalAlign=middle;whiteSpace=wrap;rounded=0;fontSize=14;" vertex="1" parent="1">
          <mxGeometry x="360" y="174" width="120" height="20" as="geometry" />
        </mxCell>
        <mxCell id="tRyvcReRtocKopO3kf35-77" value="" style="ellipse;whiteSpace=wrap;html=1;aspect=fixed;" vertex="1" parent="1">
          <mxGeometry x="281" y="85" width="30" height="30" as="geometry" />
        </mxCell>
        <mxCell id="tRyvcReRtocKopO3kf35-79" value="" style="endArrow=none;html=1;rounded=0;exitX=1;exitY=0.5;exitDx=0;exitDy=0;entryX=0;entryY=0.5;entryDx=0;entryDy=0;" edge="1" parent="1" source="tRyvcReRtocKopO3kf35-77" target="tRyvcReRtocKopO3kf35-71">
          <mxGeometry width="50" height="50" relative="1" as="geometry">
            <mxPoint x="330" y="210" as="sourcePoint" />
            <mxPoint x="400" y="100" as="targetPoint" />
          </mxGeometry>
        </mxCell>
        <mxCell id="tRyvcReRtocKopO3kf35-80" value="1,n" style="text;html=1;strokeColor=none;fillColor=none;align=center;verticalAlign=middle;whiteSpace=wrap;rounded=0;" vertex="1" parent="1">
          <mxGeometry x="330" y="85" width="16" height="14" as="geometry" />
        </mxCell>
        <mxCell id="tRyvcReRtocKopO3kf35-86" value="" style="endArrow=none;html=1;rounded=0;entryX=0.469;entryY=0.996;entryDx=0;entryDy=0;exitX=0.5;exitY=0;exitDx=0;exitDy=0;entryPerimeter=0;" edge="1" parent="1" source="tRyvcReRtocKopO3kf35-13" target="tRyvcReRtocKopO3kf35-102">
          <mxGeometry width="50" height="50" relative="1" as="geometry">
            <mxPoint x="-60" y="255" as="sourcePoint" />
            <mxPoint x="-60" y="216" as="targetPoint" />
          </mxGeometry>
        </mxCell>
        <mxCell id="tRyvcReRtocKopO3kf35-102" value="" style="rounded=1;whiteSpace=wrap;html=1;arcSize=50;" vertex="1" parent="1">
          <mxGeometry x="-168" y="52" width="230" height="140" as="geometry" />
        </mxCell>
        <mxCell id="tRyvcReRtocKopO3kf35-103" value="like" style="text;html=1;strokeColor=none;fillColor=none;align=center;verticalAlign=middle;whiteSpace=wrap;rounded=0;fontSize=25;" vertex="1" parent="1">
          <mxGeometry x="-83" y="52" width="60" height="30" as="geometry" />
        </mxCell>
        <mxCell id="tRyvcReRtocKopO3kf35-104" value="" style="endArrow=none;html=1;rounded=0;exitX=0.034;exitY=0.257;exitDx=0;exitDy=0;exitPerimeter=0;entryX=0.958;entryY=0.247;entryDx=0;entryDy=0;entryPerimeter=0;" edge="1" parent="1" source="tRyvcReRtocKopO3kf35-102" target="tRyvcReRtocKopO3kf35-102">
          <mxGeometry width="50" height="50" relative="1" as="geometry">
            <mxPoint x="59" y="42" as="sourcePoint" />
            <mxPoint x="109" y="-8" as="targetPoint" />
          </mxGeometry>
        </mxCell>
        <mxCell id="tRyvcReRtocKopO3kf35-105" value="id_like" style="text;html=1;strokeColor=none;fillColor=none;align=left;verticalAlign=middle;whiteSpace=wrap;rounded=0;fontSize=15;" vertex="1" parent="1">
          <mxGeometry x="-121" y="87" width="60" height="20" as="geometry" />
        </mxCell>
        <mxCell id="tRyvcReRtocKopO3kf35-106" value="user_id" style="text;html=1;strokeColor=none;fillColor=none;align=left;verticalAlign=middle;whiteSpace=wrap;rounded=0;fontSize=15;" vertex="1" parent="1">
          <mxGeometry x="-121" y="101" width="60" height="20" as="geometry" />
        </mxCell>
        <mxCell id="tRyvcReRtocKopO3kf35-107" value="machine_id" style="text;html=1;strokeColor=none;fillColor=none;align=left;verticalAlign=middle;whiteSpace=wrap;rounded=0;fontSize=15;" vertex="1" parent="1">
          <mxGeometry x="-121" y="117" width="60" height="20" as="geometry" />
        </mxCell>
        <mxCell id="tRyvcReRtocKopO3kf35-108" value="edite_at" style="text;html=1;strokeColor=none;fillColor=none;align=left;verticalAlign=middle;whiteSpace=wrap;rounded=0;fontSize=15;" vertex="1" parent="1">
          <mxGeometry x="-121" y="132" width="60" height="20" as="geometry" />
        </mxCell>
        <mxCell id="tRyvcReRtocKopO3kf35-109" value="actife" style="text;html=1;strokeColor=none;fillColor=none;align=left;verticalAlign=middle;whiteSpace=wrap;rounded=0;fontSize=15;" vertex="1" parent="1">
          <mxGeometry x="-122" y="152" width="60" height="20" as="geometry" />
        </mxCell>
        <mxCell id="tRyvcReRtocKopO3kf35-110" value="" style="endArrow=none;html=1;rounded=0;entryX=0.991;entryY=0.346;entryDx=0;entryDy=0;entryPerimeter=0;exitX=0;exitY=0.5;exitDx=0;exitDy=0;" edge="1" parent="1" source="tRyvcReRtocKopO3kf35-7" target="tRyvcReRtocKopO3kf35-102">
          <mxGeometry width="50" height="50" relative="1" as="geometry">
            <mxPoint x="270" y="260" as="sourcePoint" />
            <mxPoint x="320" y="210" as="targetPoint" />
          </mxGeometry>
        </mxCell>
        <mxCell id="tRyvcReRtocKopO3kf35-111" value="1,n" style="text;html=1;strokeColor=none;fillColor=none;align=center;verticalAlign=middle;whiteSpace=wrap;rounded=0;" vertex="1" parent="1">
          <mxGeometry x="70" y="84" width="16" height="14" as="geometry" />
        </mxCell>
        <mxCell id="tRyvcReRtocKopO3kf35-112" value="prenom" style="text;html=1;strokeColor=none;fillColor=none;align=left;verticalAlign=middle;whiteSpace=wrap;rounded=0;fontSize=14;" vertex="1" parent="1">
          <mxGeometry x="100" y="132" width="120" height="20" as="geometry" />
        </mxCell>
        <mxCell id="tRyvcReRtocKopO3kf35-113" value="nom" style="text;html=1;strokeColor=none;fillColor=none;align=left;verticalAlign=middle;whiteSpace=wrap;rounded=0;fontSize=14;" vertex="1" parent="1">
          <mxGeometry x="100" y="110" width="120" height="20" as="geometry" />
        </mxCell>
      </root>
    </mxGraphModel>
  </diagram>
</mxfile>
